<?xml version="1.0" encoding="UTF-8" standalone="no"?>
<!-- Created with Inkscape (http://www.inkscape.org/) -->

<svg
   version="1.1"
   id="svg1"
   width="576"
   height="576"
   viewBox="0 0 576 576"
   sodipodi:docname="GroupBox.Avalonia.svg"
   inkscape:version="1.3.2 (091e20e, 2023-11-25, custom)"
   xml:space="preserve"
   inkscape:export-filename="GroupBox.Avalonia.png"
   inkscape:export-xdpi="96"
   inkscape:export-ydpi="96"
   xmlns:inkscape="http://www.inkscape.org/namespaces/inkscape"
   xmlns:sodipodi="http://sodipodi.sourceforge.net/DTD/sodipodi-0.dtd"
   xmlns="http://www.w3.org/2000/svg"
   xmlns:svg="http://www.w3.org/2000/svg"><defs
     id="defs1"><style
       id="style1">@media (prefers-color-scheme: dark) {
   [aria-label=&quot;GroupBox&quot;] {
      filter: invert(1) hue-rotate(180deg)
   }
}</style></defs><sodipodi:namedview
     id="namedview1"
     pagecolor="#505050"
     bordercolor="#eeeeee"
     borderopacity="1"
     inkscape:showpageshadow="0"
     inkscape:pageopacity="0"
     inkscape:pagecheckerboard="0"
     inkscape:deskcolor="#d1d1d1"
     showgrid="true"
     inkscape:document-units="px"
     inkscape:window-maximized="1"
     inkscape:current-layer="g1"><inkscape:grid
       id="grid2"
       units="px"
       originx="0"
       originy="0"
       spacingx="1"
       spacingy="1"
       empcolor="#0099e5"
       empopacity="0.30196078"
       color="#0099e5"
       opacity="0.14902"
       empspacing="5"
       dotted="false"
       gridanglex="30"
       gridanglez="30"
       visible="true" /></sodipodi:namedview><g
     inkscape:groupmode="layer"
     inkscape:label="Image"
     id="g1"><path
       style="display:inline;opacity:1;fill:none;stroke:#7f7f7f;stroke-width:6;stroke-opacity:0.5"
       d="m 47,67 h -6 l -4,4 v 464 l 4,4 h 494 l 4,-4 V 71 l -4,-4 H 367"
       id="path2"
       sodipodi:nodetypes="cccccccccc"
       inkscape:label="border_outerStroke" /><path
       style="display:inline;opacity:1;fill:none;fill-opacity:0.637755;stroke:#7f7f7f;stroke-width:2"
       d="m 45,67 h -4 l -4,4 v 464 l 4,4 h 494 l 4,-4 V 71 l -4,-4 H 369"
       id="path4"
       sodipodi:nodetypes="cccccccccc"
       inkscape:label="border_innerStroke" /><path
       d="m 54.865943,21.245887 q -4.408461,0 -4.408461,-5.073889 0,-2.405246 1.143704,-3.722239 1.143705,-1.323924 3.209305,-1.323924 1.0328,0 1.809132,0.325782 0.776333,0.318851 1.143705,0.908032 l -1.0328,1.025869 q -0.318851,-0.471345 -0.804059,-0.727812 -0.478276,-0.256468 -1.0328,-0.256468 -1.400171,0 -2.176504,0.970416 -0.776333,0.963485 -0.776333,2.731028 0,3.867801 3.091468,3.867801 0.325783,0 0.609976,-0.03466 0.291125,-0.03466 0.54066,-0.09011 v -2.342862 h -1.954695 v -1.316993 h 3.327141 v 4.644134 q -0.291125,0.09011 -1.025869,0.256467 -0.727812,0.159425 -1.66357,0.159425 z m 7.633013,-3.299414 v 1.871516 h 1.802202 v 1.289267 h -4.907533 v -1.289267 h 1.635844 v -4.768901 h -1.358582 v -1.289267 h 2.550808 l 0.249535,1.88538 h 0.166357 q 0.124768,-2.024011 2.024011,-2.024011 1.136773,0 1.649707,0.651565 0.512934,0.651565 0.512934,2.107189 h -1.455624 q 0,-0.804059 -0.242604,-1.157568 -0.235672,-0.353508 -0.769401,-0.353508 -0.935758,0 -1.400172,0.804059 -0.457482,0.797127 -0.457482,2.273546 z m 9.338173,3.299414 q -1.524939,0 -2.370587,-0.998142 -0.845649,-0.998142 -0.845649,-2.814206 0,-1.822996 0.845649,-2.814207 0.845648,-0.998142 2.370587,-0.998142 1.531871,0 2.370588,0.998142 0.845648,0.991211 0.845648,2.814207 0,1.816064 -0.845648,2.814206 -0.838717,0.998142 -2.370588,0.998142 z m 0,-1.316993 q 0.810991,0 1.247678,-0.651565 0.443619,-0.651565 0.443619,-1.84379 0,-1.199157 -0.443619,-1.843791 -0.436687,-0.651565 -1.247678,-0.651565 -0.81099,0 -1.254609,0.651565 -0.436687,0.644634 -0.436687,1.843791 0,1.192225 0.436687,1.84379 0.443619,0.651565 1.254609,0.651565 z m 8.118222,1.316993 q -1.157568,0 -1.79527,-0.686223 -0.63077,-0.693154 -0.63077,-1.947763 v -4.85208 h 1.469487 v 4.85208 q 0,0.63077 0.36044,0.977347 0.36044,0.339646 1.012005,0.339646 0.804059,0 1.21302,-0.506003 0.408961,-0.512934 0.408961,-1.712091 v -3.950979 h 1.469487 V 19.7764 l 1.012006,0.152494 v 1.178362 l -2.356725,0.06932 -0.103973,-1.48335 H 81.88232 q -0.173289,0.748606 -0.679292,1.150636 -0.506002,0.402029 -1.247677,0.402029 z m 6.565555,3.049879 V 13.759821 h 1.330857 l 0.117836,1.330856 h 0.09011 q 0.09704,-0.693154 0.623839,-1.081321 0.533729,-0.388166 1.39324,-0.388166 1.448692,0 2.190367,0.984279 0.741676,0.984279 0.741676,2.897385 0,1.84379 -0.741676,2.793412 -0.741675,0.949621 -2.190367,0.949621 -0.845648,0 -1.365514,-0.388166 -0.512934,-0.388167 -0.58225,-1.081321 h -0.138631 v 4.519366 z m 1.469487,-6.612692 q 0,2.315135 1.760612,2.315135 1.802202,0 1.802202,-2.495355 0,-2.633986 -1.802202,-2.633986 -1.760612,0 -1.760612,2.315135 z m 7.314165,3.424182 v -9.842791 h 2.925111 q 1.497213,0 2.315131,0.651565 0.81793,0.644634 0.81793,1.843791 0,0.9011 -0.61691,1.441761 -0.60998,0.533729 -1.739818,0.651565 v 0.08318 q 1.455628,0.02079 2.252748,0.665428 0.79713,0.644634 0.79713,1.802202 0,1.289267 -0.77633,1.996284 -0.77634,0.707017 -2.204233,0.707017 z m 1.441761,-1.316993 h 1.926969 q 0.914963,0 1.420962,-0.415892 0.50601,-0.422824 0.50601,-1.178363 0,-0.776332 -0.5268,-1.199157 -0.526798,-0.429755 -1.497214,-0.429755 h -1.829927 z m 0,-4.54016 h 1.511076 q 0.783264,0 1.21302,-0.346578 0.436687,-0.353508 0.436687,-1.005073 0,-0.637702 -0.457482,-0.977348 -0.45055,-0.339645 -1.289267,-0.339645 h -1.414034 z m 10.447221,5.995784 q -1.52494,0 -2.37059,-0.998142 -0.84565,-0.998142 -0.84565,-2.814206 0,-1.822996 0.84565,-2.814207 0.84565,-0.998142 2.37059,-0.998142 1.53187,0 2.37058,0.998142 0.84565,0.991211 0.84565,2.814207 0,1.816064 -0.84565,2.814206 -0.83871,0.998142 -2.37058,0.998142 z m 0,-1.316993 q 0.81099,0 1.24767,-0.651565 0.44362,-0.651565 0.44362,-1.84379 0,-1.199157 -0.44362,-1.843791 -0.43668,-0.651565 -1.24767,-0.651565 -0.81099,0 -1.25461,0.651565 -0.43669,0.644634 -0.43669,1.843791 0,1.192225 0.43669,1.84379 0.44362,0.651565 1.25461,0.651565 z m 5.41492,1.178362 2.62705,-3.632128 -2.62705,-3.715307 h 1.66357 l 1.76061,2.571602 1.76061,-2.571602 h 1.66357 l -2.66171,3.659855 2.66171,3.68758 h -1.66357 l -1.79527,-2.550807 -1.72595,2.550807 z"
       id="text12"
       mask="none"
       style="-inkscape-font-specification:'CaskaydiaCove Nerd Font'"
       inkscape:label="header"
       transform="matrix(4.5083845,0,0,4.5083845,-176.41922,-11.159627)"
       aria-label="GroupBox" /></g></svg>
